<?xml version="1.0" encoding="UTF-8"?>
<svg id="Livello_2" data-name="Livello 2" xmlns="http://www.w3.org/2000/svg" viewBox="0 0 785.7 146.72">
  <defs>
    <style>
      .cls-1 {
        fill: #062107;
        stroke-width: 0px;
      }
    </style>
  </defs>
  <g id="Livello_1-2" data-name="Livello 1">
    <g>
      <g>
        <path class="cls-1" d="M234.22,27.4h29.33c6.98,0,12.77-.2,17.76-.4-2.99,4.79-6.38,10.58-9.98,17.56l-40.5,77.82v22.15h76.22v-22.55h-32.32c-6.98,0-12.77.2-17.76.4,2.99-4.79,6.39-10.58,9.98-17.56l40.11-77.82V4.85h-72.83v22.55Z"/>
        <polygon class="cls-1" points="346.75 81.87 378.08 81.87 378.08 58.33 346.75 58.33 346.75 28.8 393.44 28.8 393.44 4.85 321.81 4.85 321.81 144.53 395.24 144.53 395.24 120.58 346.75 120.58 346.75 81.87"/>
        <polygon class="cls-1" points="433.54 4.85 408.6 4.85 408.6 144.53 477.24 144.53 477.24 120.18 433.54 120.18 433.54 4.85"/>
        <polygon class="cls-1" points="462.47 28.8 491.4 28.8 491.4 144.53 516.34 144.53 516.34 28.8 545.28 28.8 545.28 4.85 462.47 4.85 462.47 28.8"/>
        <rect class="cls-1" x="556.05" y="4.85" width="24.94" height="139.67"/>
        <path class="cls-1" d="M659.6,62.72c0,8.78.6,23.94.8,32.52-2.6-7.78-7.58-20.75-10.98-29.13l-24.54-61.26h-25.14v139.67h22.75v-58.86c0-8.78-.2-23.15-.4-31.73,2.59,8.18,6.98,19.55,10.57,28.33l25.74,62.25h23.94V4.85h-22.75v57.86Z"/>
        <path class="cls-1" d="M741.6,70.1v23.35h19.95c0,20.75-4.59,28.33-19.75,28.33s-21.15-17.56-21.15-47.29,5.79-46.89,20.75-46.89c9.58,0,15.96,4.79,19.55,17.96l23.35-7.58c-5.99-24.14-21.35-35.32-42.5-35.32-32.52,0-46.69,31.92-46.69,72.23s13.77,71.83,46.29,71.83c29.13,0,44.3-19.15,44.3-52.68v-23.94h-44.09Z"/>
      </g>
      <path class="cls-1" d="M174.23,79.25v65.28c-37.43-.43-69.59-43.58-83.48-86.13l-3.63-.03-3.63.03C69.59,100.95,37.43,144.1,0,144.53v-65.28c34.87-.43,77.6-25.63,77.38-79.25h19.48c-.23,53.62,42.51,78.82,77.38,79.25Z"/>
    </g>
  </g>
</svg>